#!OML:ASF G:\JayActor3\Patient Classification 1\Patient 1\Session 6\male.ASF
:FULLY-SPECIFIED
:DEGREES
472
root 23.7576 16.0751 -9.66089 3.63823 -69.7545 -6.45449
lowerback -0.257821 -1.71797 -0.086794
upperback 3.52558 -2.28641 -1.34886
thorax 3.71764 -1.13513 -1.41962
lowerneck -10.4282 3.82482 5.30518
upperneck 23.0853 4.52298 -2.42538
head 9.14009 2.18959 -1.24607
rclavicle -4.96962e-015 7.95139e-016
rhumerus -35.6328 -3.85373 -86.3332
rradius 24.083
rwrist 7.14742
rhand -16.1847 -7.34909
rfingers 7.12502
rthumb 10.022 -37.0905
lclavicle -4.96962e-015 7.95139e-016
lhumerus -25.1763 7.30969 80.9174
lradius 27.6019
lwrist 17.281
lhand -16.8487 10.4172
lfingers 7.12502
lthumb 9.38135 40.1884
rfemur -23.9106 4.64789 22.3725
rtibia 66.152
rfoot -15.6312 -14.1136
rtoes -9.391
lfemur -5.71292 13.0243 -23.6378
ltibia 25.3832
lfoot -18.0792 3.84412
ltoes 1.51682
473
root 23.639 16.0603 -9.59587 3.54351 -69.5042 -6.37229
lowerback -0.210384 -1.80055 -0.137509
upperback 3.55513 -2.39772 -1.29237
thorax 3.7234 -1.19322 -1.33592
lowerneck -10.4013 3.81788 5.30344
upperneck 23.0888 4.53014 -2.49172
head 9.13789 2.18583 -1.26817
rclavicle 6.11263e-015 8.74653e-015
rhumerus -35.9498 -3.75071 -86.2749
rradius 24.2655
rwrist 6.9298
rhand -16.1672 -7.34048
rfingers 7.12502
rthumb 10.0388 -37.0811
lclavicle 6.11263e-015 8.74653e-015
lhumerus -24.7285 6.44826 81.1504
lradius 28.5716
lwrist 17.8719
lhand -16.8541 10.3385
lfingers 7.12502
lthumb 9.37612 40.11
rfemur -24.841 5.07327 22.4411
rtibia 65.0217
rfoot -16.2742 -14.2336
rtoes -9.6511
lfemur -5.21652 12.8978 -23.6133
ltibia 25.5224
lfoot -18.5767 3.68969
ltoes 1.58069
474
root 23.5198 16.0468 -9.53092 3.42442 -69.2664 -6.2653
lowerback -0.161526 -1.87515 -0.199468
upperback 3.58809 -2.4981 -1.24069
thorax 3.7328 -1.2462 -1.25052
lowerneck -10.3747 3.80916 5.30564
upperneck 23.073 4.53342 -2.55399
head 9.12892 2.18131 -1.28991
rclavicle 4.90501e-014 -6.36111e-015
rhumerus -36.2513 -3.66921 -86.2219
rradius 24.4424
rwrist 6.76568
rhand -16.168 -7.30788
rfingers 7.12502
rthumb 10.0381 -37.0485
lclavicle 4.90501e-014 -6.36111e-015
lhumerus -24.2863 5.59946 81.3529
lradius 29.5392
lwrist 18.4154
lhand -16.8845 10.2659
lfingers 7.12502
lthumb 9.34679 40.0386
rfemur -25.7162 5.47069 22.4881
rtibia 63.7821
rfoot -16.7566 -14.3102
rtoes -9.72163
lfemur -4.65458 12.8132 -23.5923
ltibia 25.5457
lfoot -19.0303 3.52523
ltoes 1.63774
475
root 23.3999 16.0356 -9.46627 3.26639 -69.041 -6.11664
lowerback -0.113576 -1.94622 -0.288921
upperback 3.62504 -2.59322 -1.19149
thorax 3.74847 -1.29745 -1.1523
lowerneck -10.3492 3.80322 5.31263
upperneck 23.0393 4.54028 -2.61784
head 9.11426 2.17896 -1.31251
rclavicle -5.56597e-015 -6.36111e-015
rhumerus -36.5312 -3.58739 -86.1806
rradius 24.6128
rwrist 6.63307
rhand -16.1852 -7.26414
rfingers 7.12502
rthumb 10.0215 -37.0055
lclavicle -5.56597e-015 -6.36111e-015
lhumerus -23.8493 4.7788 81.5255
lradius 30.5017
lwrist 18.9127
lhand -16.9451 10.2125
lfingers 7.12502
lthumb 9.28832 39.9878
rfemur -26.5334 5.83464 22.5118
rtibia 62.4404
rfoot -17.0648 -14.3702
rtoes -9.85576
lfemur -4.01143 12.7647 -23.5804
ltibia 25.4208
lfoot -19.4221 3.35332
ltoes 1.7052
476
root 23.2793 16.0275 -9.40212 3.05789 -68.8223 -5.91085
lowerback -0.0706719 -2.01193 -0.412564
upperback 3.66601 -2.68042 -1.14726
thorax 3.77312 -1.34582 -1.0402
lowerneck -10.3298 3.7964 5.32062
upperneck 22.9898 4.54483 -2.67759
head 9.09515 2.17628 -1.33397
rclavicle 3.25013e-014 -2.46493e-014
rhumerus -36.7877 -3.50932 -86.1525
rradius 24.7793
rwrist 6.51007
rhand -16.2116 -7.2377
rfingers 7.12502
rthumb 9.99599 -36.9803
lclavicle 3.25013e-014 -2.46493e-014
lhumerus -23.4088 3.9927 81.6672
lradius 31.4409
lwrist 19.3264
lhand -17.1088 10.2069
lfingers 7.12502
lthumb 9.13032 39.9893
rfemur -27.2962 6.16108 22.5093
rtibia 61.0075
rfoot -17.249 -14.4092
rtoes -10.0523
lfemur -3.2825 12.7377 -23.5847
ltibia 25.1308
lfoot -19.741 3.18574
ltoes 1.75114
477
root 23.1583 16.0216 -9.33884 2.80275 -68.5991 -5.64753
lowerback -0.0298234 -2.07595 -0.570739
upperback 3.70681 -2.76455 -1.1087
thorax 3.80071 -1.39376 -0.914702
lowerneck -10.3116 3.78796 5.33433
upperneck 22.9293 4.54558 -2.73521
head 9.07239 2.17272 -1.35601
rclavicle 1.95803e-014 7.95139e-016
rhumerus -37.0268 -3.43439 -86.1402
rradius 24.9511
rwrist 6.36995
rhand -16.2316 -7.2491
rfingers 7.12502
rthumb 9.97675 -36.9927
lclavicle 1.95803e-014 7.95139e-016
lhumerus -22.9692 3.22446 81.7805
lradius 32.3596
lwrist 19.6851
lhand -17.3579 10.2387
lfingers 7.12502
lthumb 8.89 40.0314
rfemur -28.0097 6.43798 22.485
rtibia 59.4991
rfoot -17.3547 -14.4207
rtoes -10.1986
lfemur -2.47912 12.7241 -23.6071
ltibia 24.6799
lfoot -19.9773 3.03764
ltoes 1.71492
478
root 23.0369 16.0169 -9.27627 2.51522 -68.3763 -5.34595
lowerback 0.0104842 -2.13561 -0.751995
upperback 3.74834 -2.84235 -1.07466
thorax 3.83098 -1.43934 -0.780895
lowerneck -10.2992 3.77744 5.3486
upperneck 22.86 4.54262 -2.79006
head 9.04746 2.16791 -1.37747
rclavicle 9.0447e-015 -1.51076e-014
rhumerus -37.2481 -3.37362 -86.1364
rradius 25.125
rwrist 6.21616
rhand -16.2391 -7.29905
rfingers 7.12502
rthumb 9.96951 -37.043
lclavicle 9.0447e-015 -1.51076e-014
lhumerus -22.5284 2.47349 81.8729
lradius 33.2517
lwrist 19.9891
lhand -17.6801 10.2958
lfingers 7.12502
lthumb 8.57902 40.1015
rfemur -28.6755 6.66979 22.4495
rtibia 57.931
rfoot -17.4025 -14.4249
rtoes -10.2527
lfemur -1.60722 12.7285 -23.641
ltibia 24.0852
lfoot -20.127 2.9239
ltoes 1.52016
479
root 22.9149 16.0127 -9.21405 2.20934 -68.1612 -5.02031
lowerback 0.0465401 -2.18526 -0.942075
upperback 3.78869 -2.90645 -1.04775
thorax 3.86319 -1.47837 -0.64927
lowerneck -10.2924 3.76093 5.36055
upperneck 22.789 4.52917 -2.83448
head 9.02223 2.15912 -1.39602
rclavicle 1.87852e-014 1.59028e-015
rhumerus -37.4554 -3.34561 -86.1355
rradius 25.2908
rwrist 6.0518
rhand -16.2372 -7.36383
rfingers 7.12502
rthumb 9.9713 -37.1076
lclavicle 1.87852e-014 1.59028e-015
lhumerus -22.0906 1.72681 81.9457
lradius 34.1119
lwrist 20.2498
lhand -18.0264 10.3361
lfingers 7.12502
lthumb 8.24481 40.1552
rfemur -29.2981 6.86389 22.4082
rtibia 56.3152
rfoot -17.4223 -14.4178
rtoes -10.0571
lfemur -0.67792 12.7467 -23.6842
ltibia 23.3708
lfoot -20.206 2.85737
ltoes 1.12246
480
root 22.7923 16.0084 -9.15189 1.91016 -67.9587 -4.70187
lowerback 0.0820566 -2.2278 -1.12608
upperback 3.82771 -2.9611 -1.02522
thorax 3.89432 -1.51253 -0.525261
lowerneck -10.2872 3.74437 5.37449
upperneck 22.7153 4.51459 -2.8762
head 8.99635 2.15031 -1.41405
rclavicle -9.93923e-017 7.95139e-015
rhumerus -37.6493 -3.34057 -86.1393
rradius 25.4468
rwrist 5.88052
rhand -16.2234 -7.43763
rfingers 7.12502
rthumb 9.98467 -37.1808
lclavicle -9.93923e-017 7.95139e-015
lhumerus -21.6644 0.984691 81.9986
lradius 34.9449
lwrist 20.5033
lhand -18.3466 10.3341
lfingers 7.12502
lthumb 7.93582 40.1651
rfemur -29.8738 7.02634 22.3753
rtibia 54.6585
rfoot -17.4242 -14.4079
rtoes -9.58937
lfemur 0.307208 12.7856 -23.7223
ltibia 22.5527
lfoot -20.235 2.82231
ltoes 0.589887
481
root 22.669 16.0043 -9.08945 1.63646 -67.7721 -4.40855
lowerback 0.11487 -2.26447 -1.29515
upperback 3.86375 -3.00821 -1.00389
thorax 3.92346 -1.54249 -0.41061
lowerneck -10.2848 3.72869 5.38642
upperneck 22.6431 4.50062 -2.91411
head 8.97138 2.14198 -1.43032
rclavicle -4.88513e-014 -4.77083e-015
rhumerus -37.829 -3.36584 -86.1383
rradius 25.5796
rwrist 5.73186
rhand -16.2026 -7.48013
rfingers 7.12502
rthumb 10.0047 -37.2223
lclavicle -4.88513e-014 -4.77083e-015
lhumerus -21.2531 0.262845 82.0325
lradius 35.7465
lwrist 20.7507
lhand -18.5759 10.2557
lfingers 7.12502
lthumb 7.71455 40.095
rfemur -30.4043 7.16763 22.3568
rtibia 52.9605
rfoot -17.3722 -14.4253
rtoes -8.92056
lfemur 1.34513 12.8433 -23.7474
ltibia 21.6393
lfoot -20.2227 2.79839
ltoes -0.0257746
482
root 22.5451 16.0009 -9.02664 1.39513 -67.5989 -4.14791
lowerback 0.145305 -2.29564 -1.44157
upperback 3.89534 -3.04831 -0.985378
thorax 3.94824 -1.56817 -0.31121
lowerneck -10.2854 3.71308 5.39875
upperneck 22.5775 4.48523 -2.94679
head 8.94917 2.13347 -1.44498
rclavicle 4.7758e-014 -2.38542e-015
rhumerus -37.997 -3.42111 -86.1358
rradius 25.6883
rwrist 5.60554
rhand -16.1873 -7.49091
rfingers 7.12502
rthumb 10.0195 -37.2324
lclavicle 4.7758e-014 -2.38542e-015
lhumerus -20.8525 -0.43989 82.0503
lradius 36.5079
lwrist 21.0116
lhand -18.7526 10.1505
lfingers 7.12502
lthumb 7.54398 39.9959
rfemur -30.8892 7.29091 22.3549
rtibia 51.2199
rfoot -17.2472 -14.4731
rtoes -8.017
lfemur 2.43871 12.9176 -23.7537
ltibia 20.6294
lfoot -20.1759 2.76218
ltoes -0.657604
483
root 22.4208 15.9985 -8.96352 1.20206 -67.4352 -3.93172
lowerback 0.172462 -2.32601 -1.56214
upperback 3.92065 -3.0878 -0.966819
thorax 3.96719 -1.59264 -0.226079
lowerneck -10.2847 3.70097 5.41772
upperneck 22.5144 4.4742 -2.98296
head 8.92799 2.12716 -1.46147
rclavicle 4.4975e-014 -4.77083e-015
rhumerus -38.1483 -3.49516 -86.1341
rradius 25.7712
rwrist 5.50401
rhand -16.1744 -7.48448
rfingers 7.12502
rthumb 10.0319 -37.2254
lclavicle 4.4975e-014 -4.77083e-015
lhumerus -20.4638 -1.11107 82.0504
lradius 37.2279
lwrist 21.2813
lhand -18.8478 10.0145
lfingers 7.12502
lthumb 7.45207 39.8632
rfemur -31.3335 7.40003 22.3723
rtibia 49.4342
rfoot -16.974 -14.5885
rtoes -7.05896
lfemur 3.58474 13.0004 -23.7361
ltibia 19.5206
lfoot -20.0866 2.68674
ltoes -1.17113
484
root 22.2964 15.997 -8.90005 1.04965 -67.28 -3.75193
lowerback 0.194848 -2.35531 -1.658
upperback 3.94091 -3.12621 -0.948873
thorax 3.98238 -1.61567 -0.155349
lowerneck -10.2833 3.69071 5.44049
upperneck 22.4531 4.46556 -3.02175
head 8.90764 2.12198 -1.47922
rclavicle 4.13472e-014 1.59028e-015
rhumerus -38.2807 -3.5957 -86.128
rradius 25.8305
rwrist 5.44076
rhand -16.1624 -7.47289
rfingers 7.12502
rthumb 10.0434 -37.2132
lclavicle 4.13472e-014 1.59028e-015
lhumerus -20.0795 -1.735 82.0382
lradius 37.8954
lwrist 21.541
lhand -18.9546 9.91088
lfingers 7.12502
lthumb 7.34897 39.7632
rfemur -31.7384 7.49567 22.4048
rtibia 47.6054
rfoot -16.5527 -14.7626
rtoes -6.06059
lfemur 4.78421 13.0851 -23.6991
ltibia 18.3092
lfoot -19.947 2.57794
ltoes -1.58278
